<svg width="526" height="92" viewBox="0 0 526 92" fill="none" xmlns="http://www.w3.org/2000/svg">
<circle cx="46.7095" cy="14.5422" r="11.3489" transform="rotate(90 46.7095 14.5422)" stroke="black" stroke-width="6.25775"/>
<path d="M61.9089 34.4497C55.719 34.4497 50.6887 39.5452 50.6887 45.8509C50.6887 52.1566 55.7033 57.2521 61.9089 57.2521" stroke="#0F0F0F" stroke-width="6.25775" stroke-miterlimit="10"/>
<path d="M31.8689 34.4492C38.0588 34.4492 43.0891 39.5447 43.0891 45.8504C43.0891 52.1561 38.0745 57.2517 31.8689 57.2516" stroke="#0F0F0F" stroke-width="6.25775" stroke-miterlimit="10"/>
<circle cx="15.2193" cy="45.6696" r="11.3489" transform="rotate(90 15.2193 45.6696)" stroke="black" stroke-width="6.25775"/>
<circle cx="78.5608" cy="45.6696" r="11.3489" transform="rotate(90 78.5608 45.6696)" stroke="black" stroke-width="6.25775"/>
<circle cx="46.7095" cy="76.7966" r="11.3489" transform="rotate(90 46.7095 76.7966)" stroke="black" stroke-width="6.25775"/>
<path d="M114.981 53.8609C120.381 53.8609 123.082 50.9597 123.082 45.1575C123.082 39.4759 120.576 36.635 115.564 36.635H112.589V53.8609H114.981ZM115.283 32.0321C119.584 32.0321 122.928 33.1711 125.313 35.4491C127.711 37.7137 128.911 40.9633 128.911 45.1977C128.911 49.4187 127.671 52.6883 125.192 55.0066C122.713 57.3248 119.135 58.4839 114.459 58.4839H106.981V32.0321H115.283ZM151.596 53.8609V58.4839H136.381V32.0321H151.596V36.635H141.989V42.444H150.933V47.0268H141.989V53.8609H151.596ZM174.699 51.1473C174.699 53.5192 173.842 55.3952 172.127 56.7754C170.411 58.1556 168.08 58.8457 165.132 58.8457C162.184 58.8457 159.631 58.3164 157.474 57.2578V52.0518C159.256 52.829 160.763 53.3852 161.996 53.7202C163.229 54.0552 164.415 54.2227 165.554 54.2227C166.693 54.2227 167.584 53.9882 168.227 53.5192C168.884 53.0368 169.212 52.3332 169.212 51.4086C169.212 50.8726 169.065 50.4103 168.77 50.0217C168.475 49.6197 168.066 49.2445 167.544 48.8961C167.035 48.5343 165.916 47.9514 164.187 47.1474C162.472 46.33 161.219 45.5729 160.428 44.8761C158.66 43.3485 157.775 41.4323 157.775 39.1275C157.775 36.8226 158.566 35.0002 160.147 33.6602C161.728 32.3202 163.919 31.6502 166.72 31.6502C169.092 31.6502 171.711 32.2733 174.579 33.5195L172.77 37.8812C171.363 37.305 170.19 36.903 169.252 36.6752C168.314 36.4474 167.363 36.3335 166.398 36.3335C165.447 36.3335 164.683 36.5747 164.107 37.0571C163.544 37.5395 163.262 38.1895 163.262 39.0069C163.262 39.9449 163.738 40.7355 164.69 41.3787C165.159 41.7003 166.344 42.31 168.247 43.2078C170.7 44.387 172.388 45.5729 173.313 46.7655C174.237 47.9581 174.699 49.4187 174.699 51.1473ZM187.081 58.4839H181.473V32.0321H187.081V58.4839ZM205.76 48.2931V43.6299H216.253V57.3382C213.224 58.3432 210.089 58.8457 206.846 58.8457C202.866 58.8457 199.817 57.6732 197.7 55.3282C195.596 52.9832 194.544 49.6532 194.544 45.3384C194.544 41.0102 195.764 37.6467 198.203 35.2481C200.668 32.8495 204.059 31.6502 208.373 31.6502C211.094 31.6502 213.707 32.1929 216.212 33.2783L214.363 37.7807C212.434 36.8159 210.424 36.3335 208.333 36.3335C205.921 36.3335 203.978 37.1509 202.504 38.7858C201.044 40.4072 200.313 42.6249 200.313 45.4389C200.313 48.2395 200.903 50.3969 202.082 51.9111C203.261 53.4254 204.97 54.1825 207.208 54.1825C208.373 54.1825 209.559 54.0619 210.765 53.8207V48.2931H205.76ZM248.004 32.0321V58.4839H240.869L229.371 38.4843H229.21C229.438 42.1023 229.552 44.6215 229.552 46.0419V58.4839H224.547V32.0321H231.602L243.1 51.8508H243.22C243.046 48.541 242.959 46.1089 242.959 44.5545V32.0321H248.004ZM280.545 36.3335C278.441 36.3335 276.807 37.1241 275.641 38.7054C274.488 40.3 273.912 42.511 273.912 45.3384C273.912 51.2344 276.123 54.1825 280.545 54.1825C282.421 54.1825 284.673 53.7202 287.299 52.7955V57.499C285.142 58.3968 282.716 58.8457 280.023 58.8457C276.177 58.8457 273.236 57.6799 271.199 55.3483C269.162 53.0033 268.144 49.6532 268.144 45.2982C268.103 41.171 269.216 37.8544 271.48 35.3486C273.758 32.8294 276.78 31.5966 280.545 31.6502C283.118 31.6502 285.704 32.2733 288.304 33.5195L286.495 38.0823C284.043 36.9164 282.06 36.3335 280.545 36.3335ZM305.623 36.2933C303.399 36.2933 301.717 37.0437 300.578 38.5446C299.452 40.0454 298.889 42.2698 298.889 45.2178C298.889 51.1674 301.121 54.1423 305.583 54.1423C310.058 54.1423 312.296 51.1674 312.296 45.2178C312.296 39.2682 310.072 36.2933 305.623 36.2933ZM296.256 35.1074C298.454 32.7892 301.583 31.6301 305.643 31.6301C309.703 31.6301 312.805 32.8026 314.949 35.1476C317.107 37.4926 318.186 40.8561 318.186 45.2379C318.186 49.6197 317.1 52.9832 314.929 55.3282C312.758 57.6732 309.643 58.8457 305.583 58.8457C301.536 58.8457 298.427 57.6732 296.256 55.3282C294.085 52.9832 293 49.6063 293 45.1977C293 40.7891 294.085 37.4256 296.256 35.1074ZM341.964 58.4839H325.643V32.0321H331.251V53.8609H341.964V58.4839ZM364.88 58.4839H348.558V32.0321H354.166V53.8609H364.88V58.4839ZM386.689 53.8609V58.4839H371.473V32.0321H386.689V36.635H377.081V42.444H386.026V47.0268H377.081V53.8609H386.689ZM405.41 36.3335C403.307 36.3335 401.672 37.1241 400.506 38.7054C399.354 40.3 398.777 42.511 398.777 45.3384C398.777 51.2344 400.988 54.1825 405.41 54.1825C407.286 54.1825 409.538 53.7202 412.164 52.7955V57.499C410.007 58.3968 407.581 58.8457 404.888 58.8457C401.042 58.8457 398.101 57.6799 396.064 55.3483C394.027 53.0033 393.009 49.6532 393.009 45.2982C392.968 41.171 394.081 37.8544 396.345 35.3486C398.623 32.8294 401.645 31.5966 405.41 31.6502C407.983 31.6502 410.57 32.2733 413.169 33.5195L411.36 38.0823C408.908 36.9164 406.925 36.3335 405.41 36.3335ZM429.98 36.6953V58.4839H424.372V36.6953H417.196V32.0321H437.155V36.6953H429.98ZM448.817 58.4839H443.209V32.0321H448.817V58.4839ZM467.536 47.7705L472.541 32.0321H478.209L469.224 58.4839H463.094L454.129 32.0321H459.797L464.762 47.7705C465.003 48.5879 465.278 49.6398 465.586 50.9262C465.908 52.2126 466.102 53.1038 466.169 53.5996C466.317 52.3935 466.772 50.4505 467.536 47.7705ZM498.742 53.8609V58.4839H483.526V32.0321H498.742V36.635H489.134V42.444H498.078V47.0268H489.134V53.8609H498.742Z" fill="black"/>
</svg>
